#!OML:ASF E:\Style4\Style4.ASF
:FULLY-SPECIFIED
:DEGREES
1657
root -0.0670646 17.7741 -1.52412 1.31779 -1.01465 1.30736
lowerback 6.14182 2.23623 -0.182716
upperback 1.98693 2.97553 0.691671
thorax -1.4397 1.48351 0.595773
lowerneck -3.2971 -5.47139 -7.15829
upperneck 12.6308 -7.34238 4.22914
head 4.75128 -3.70351 2.07554
rclavicle 1.963e-014 -4.37326e-015
rhumerus -21.0546 -39.6327 -34.289
rradius 59.774
rwrist 13.6711
rhand -26.4046 15.6345
rfingers 7.12502
rthumb 0.154981 -14.3451
lclavicle 1.963e-014 -4.37326e-015
lhumerus -20.3273 9.45976 45.8508
lradius 62.1377
lwrist -17.0058
lhand -26.423 32.6057
lfingers 7.12502
lthumb 0.1372 62.5854
rfemur -12.4293 0.718211 17.1757
rtibia 31.6122
rfoot -19.2445 -14.6403
rtoes -13.1728
lfemur -10.533 -3.27253 -20.2836
ltibia 30.1029
lfoot -20.4848 9.17624
ltoes -15.4021
1658
root -0.0652498 17.7718 -1.52765 1.31785 -1.04183 1.24401
lowerback 6.14806 2.25206 -0.075584
upperback 1.98107 3.00303 0.691762
thorax -1.44407 1.49725 0.533664
lowerneck -3.34089 -5.51665 -7.12832
upperneck 12.6457 -7.40436 4.2354
head 4.76595 -3.73162 2.06732
rclavicle -4.62174e-015 7.55382e-015
rhumerus -20.787 -39.5271 -34.6208
rradius 59.6766
rwrist 13.6983
rhand -26.3994 15.7138
rfingers 7.12502
rthumb 0.160008 -14.2659
lclavicle -4.62174e-015 7.55382e-015
lhumerus -19.9455 9.45229 46.1294
lradius 62.0104
lwrist -17.1595
lhand -26.4943 32.6206
lfingers 7.12502
lthumb 0.0682995 62.6003
rfemur -12.4353 0.725334 17.2392
rtibia 31.5855
rfoot -19.218 -14.6111
rtoes -13.3069
lfemur -10.5878 -3.24903 -20.2183
ltibia 30.1869
lfoot -20.5135 9.17128
ltoes -15.5557
1659
root -0.0638523 17.7704 -1.53181 1.32624 -1.06115 1.21187
lowerback 6.14139 2.27532 0.00710585
upperback 1.97063 3.03887 0.687242
thorax -1.44697 1.51516 0.48029
lowerneck -3.33164 -5.56688 -7.14683
upperneck 12.595 -7.47894 4.3051
head 4.75642 -3.76524 2.0877
rclavicle 4.91992e-015 2.42517e-014
rhumerus -20.5105 -39.3289 -34.9654
rradius 59.6403
rwrist 13.7115
rhand -26.3901 15.5819
rfingers 7.12502
rthumb 0.16898 -14.3978
lclavicle 4.91992e-015 2.42517e-014
lhumerus -19.5793 9.27918 46.4636
lradius 61.9834
lwrist -17.1934
lhand -26.4458 32.475
lfingers 7.12502
lthumb 0.115179 62.4548
rfemur -12.4763 0.718274 17.2717
rtibia 31.6063
rfoot -19.1424 -14.6516
rtoes -13.6914
lfemur -10.6296 -3.24091 -20.1877
ltibia 30.2312
lfoot -20.5315 9.16966
ltoes -15.4066
1660
root -0.0621809 17.7708 -1.53533 1.31924 -1.06046 1.24043
lowerback 6.12246 2.28791 0.0112826
upperback 1.98479 3.05552 0.67633
thorax -1.42122 1.52349 0.466759
lowerneck -3.35712 -5.61497 -7.15629
upperneck 12.5413 -7.54846 4.371
head 4.75108 -3.79571 2.10479
rclavicle 1.14798e-014 -8.74653e-015
rhumerus -20.1232 -39.1977 -35.4239
rradius 59.5661
rwrist 13.8388
rhand -26.3802 15.618
rfingers 7.12502
rthumb 0.178528 -14.3617
lclavicle 1.14798e-014 -8.74653e-015
lhumerus -19.1702 9.0634 46.8397
lradius 61.9532
lwrist -17.2123
lhand -26.4632 32.4454
lfingers 7.12502
lthumb 0.0983261 62.4251
rfemur -12.4986 0.700417 17.2298
rtibia 31.6454
rfoot -19.1623 -14.6133
rtoes -13.5097
lfemur -10.6465 -3.21924 -20.23
ltibia 30.2602
lfoot -20.4832 9.2419
ltoes -15.5762
1661
root -0.0605483 17.7702 -1.53956 1.29063 -1.05956 1.33581
lowerback 6.15005 2.29786 -0.0490648
upperback 1.98246 3.06441 0.63159
thorax -1.43973 1.52796 0.452657
lowerneck -3.36982 -5.64471 -7.12509
upperneck 12.5179 -7.59409 4.40535
head 4.74872 -3.81461 2.10733
rclavicle 1.42628e-014 -7.95139e-016
rhumerus -19.7513 -38.9806 -35.9293
rradius 59.5122
rwrist 13.9846
rhand -26.2709 15.6563
rfingers 7.12502
rthumb 0.284092 -14.3233
lclavicle 1.42628e-014 -7.95139e-016
lhumerus -18.723 8.85365 47.1964
lradius 61.8692
lwrist -17.2525
lhand -26.4613 32.3805
lfingers 7.12502
lthumb 0.100203 62.3602
rfemur -12.5171 0.672879 17.1144
rtibia 31.7064
rfoot -19.1891 -14.5664
rtoes -13.31
lfemur -10.6327 -3.228 -20.3399
ltibia 30.2646
lfoot -20.4796 9.2142
ltoes -15.3263
1662
root -0.0601921 17.77 -1.54554 1.29933 -1.0438 1.36864
lowerback 6.19945 2.30696 -0.078589
upperback 1.96433 3.07458 0.613796
thorax -1.4865 1.53303 0.447491
lowerneck -3.48796 -5.66833 -7.01805
upperneck 12.5679 -7.619 4.33101
head 4.77842 -3.82441 2.06183
rclavicle -4.70126e-014 1.98785e-015
rhumerus -19.307 -38.8103 -36.4809
rradius 59.4572
rwrist 14.1225
rhand -25.9962 15.7537
rfingers 7.12502
rthumb 0.549449 -14.2254
lclavicle -4.70126e-014 1.98785e-015
lhumerus -18.2355 8.58911 47.6154
lradius 61.8168
lwrist -17.263
lhand -26.4876 32.4184
lfingers 7.12502
lthumb 0.0748066 62.3981
rfemur -12.5819 0.666694 17.0734
rtibia 31.7814
rfoot -19.2392 -14.5357
rtoes -13.1753
lfemur -10.6656 -3.22019 -20.3723
ltibia 30.2539
lfoot -20.4562 9.18582
ltoes -15.3398
1663
root -0.0603718 17.7706 -1.55085 1.27019 -1.06206 1.33774
lowerback 6.23754 2.33527 -0.0341509
upperback 1.99441 3.11472 0.611496
thorax -1.47462 1.553 0.416502
lowerneck -3.62539 -5.71037 -6.98529
upperneck 12.5526 -7.67234 4.35513
head 4.79953 -3.84577 2.05659
rclavicle 1.9133e-014 0
rhumerus -18.8019 -38.5655 -37.0597
rradius 59.3511
rwrist 14.1824
rhand -25.8365 15.8097
rfingers 7.12502
rthumb 0.703669 -14.1689
lclavicle 1.9133e-014 0
lhumerus -17.6593 8.26267 48.0965
lradius 61.7557
lwrist -17.2898
lhand -26.3928 32.4563
lfingers 7.12502
lthumb 0.166348 62.436
rfemur -12.5663 0.699533 17.1148
rtibia 31.8385
rfoot -19.2736 -14.4507
rtoes -12.6108
lfemur -10.652 -3.13309 -20.3342
ltibia 30.2516
lfoot -20.4188 9.17542
ltoes -15.4038
1664
root -0.0607586 17.7721 -1.55493 1.23394 -1.03613 1.30492
lowerback 6.22029 2.36712 -0.0113346
upperback 2.03329 3.15846 0.626394
thorax -1.42504 1.57482 0.417634
lowerneck -3.67506 -5.75372 -6.97385
upperneck 12.4676 -7.73485 4.42356
head 4.78749 -3.8713 2.0711
rclavicle -2.48481e-016 -6.36111e-015
rhumerus -18.3287 -38.2767 -37.599
rradius 59.2477
rwrist 14.4511
rhand -25.7975 15.7089
rfingers 7.12502
rthumb 0.741331 -14.2696
lclavicle -2.48481e-016 -6.36111e-015
lhumerus -17.0167 7.96372 48.6637
lradius 61.6221
lwrist -17.3992
lhand -26.2398 32.4064
lfingers 7.12502
lthumb 0.314165 62.3859
rfemur -12.4829 0.692244 17.1565
rtibia 31.8445
rfoot -19.264 -14.2528
rtoes -11.7036
lfemur -10.6447 -3.1415 -20.297
ltibia 30.2714
lfoot -20.4004 9.18895
ltoes -15.4852
1665
root -0.0602245 17.7718 -1.55964 1.17976 -0.989017 1.2403
lowerback 6.2254 2.36662 0.0376997
upperback 2.0414 3.16153 0.669169
thorax -1.41934 1.57631 0.433888
lowerneck -3.57865 -5.76494 -6.99614
upperneck 12.3342 -7.7539 4.45204
head 4.73341 -3.88136 2.08647
rclavicle -4.44781e-014 1.47101e-014
rhumerus -17.8203 -37.8937 -38.1949
rradius 59.1344
rwrist 14.8243
rhand -25.7365 15.6046
rfingers 7.12502
rthumb 0.800279 -14.3736
lclavicle -4.44781e-014 1.47101e-014
lhumerus -16.468 7.55526 49.2396
lradius 61.4971
lwrist -17.4121
lhand -26.2309 32.2597
lfingers 7.12502
lthumb 0.322776 62.2392
rfemur -12.4199 0.686997 17.2262
rtibia 31.8145
rfoot -19.2511 -14.2668
rtoes -11.6995
lfemur -10.613 -3.18028 -20.229
ltibia 30.2853
lfoot -20.4246 9.14753
ltoes -15.4233
1666
root -0.0588571 17.771 -1.56391 1.14491 -0.963711 1.20567
lowerback 6.23886 2.36104 0.0765112
upperback 2.0389 3.15718 0.703569
thorax -1.4292 1.5741 0.447145
lowerneck -3.54487 -5.77767 -7.08449
upperneck 12.2574 -7.77045 4.50422
head 4.71073 -3.89103 2.11723
rclavicle -4.21423e-014 1.23246e-014
rhumerus -17.2268 -37.4192 -38.8773
rradius 59.0345
rwrist 15.0171
rhand -25.6123 15.4762
rfingers 7.12502
rthumb 0.92022 -14.5015
lclavicle -4.21423e-014 1.23246e-014
lhumerus -15.9813 7.01738 49.8142
lradius 61.4849
lwrist -17.3981
lhand -26.1984 32.0757
lfingers 7.12502
lthumb 0.354125 62.0552
rfemur -12.4279 0.686557 17.2567
rtibia 31.7687
rfoot -19.1952 -14.507
rtoes -12.6959
lfemur -10.592 -3.16703 -20.1955
ltibia 30.2924
lfoot -20.4123 9.10893
ltoes -15.479
1667
root -0.057667 17.7709 -1.56856 1.14868 -0.907421 1.29925
lowerback 6.271 2.37079 0.0206716
upperback 1.99579 3.16653 0.668137
thorax -1.49248 1.57879 0.438636
lowerneck -3.60009 -5.79999 -7.11818
upperneck 12.3462 -7.79949 4.52298
head 4.7511 -3.90504 2.1238
rclavicle -1.88845e-015 7.15625e-015
rhumerus -16.7359 -36.9264 -39.5706
rradius 58.9489
rwrist 15.2507
rhand -25.5107 15.4221
rfingers 7.12502
rthumb 1.01828 -14.5552
lclavicle -1.88845e-015 7.15625e-015
lhumerus -15.4413 6.29227 50.4099
lradius 61.5466
lwrist -17.5247
lhand -26.0887 32.3116
lfingers 7.12502
lthumb 0.460123 62.2909
rfemur -12.4474 0.661861 17.1423
rtibia 31.7224
rfoot -19.1393 -14.6415
rtoes -13.1667
lfemur -10.6161 -3.19305 -20.308
ltibia 30.2891
lfoot -20.3807 9.11915
ltoes -15.6237
1668
root -0.0573209 17.7723 -1.57596 1.19761 -0.823363 1.36312
lowerback 6.32231 2.36498 -0.0205694
upperback 1.85275 3.15678 0.634787
thorax -1.66838 1.574 0.421945
lowerneck -3.35652 -5.78159 -7.03224
upperneck 12.3182 -7.78533 4.43426
head 4.69392 -3.90256 2.09164
rclavicle 4.82053e-015 0
rhumerus -16.4748 -35.983 -40.1821
rradius 59.0074
rwrist 15.1906
rhand -25.539 15.23
rfingers 7.12502
rthumb 0.991026 -14.7475
lclavicle 4.82053e-015 0
lhumerus -15.0136 5.29868 51.0062
lradius 61.6558
lwrist -17.5794
lhand -25.9814 32.842
lfingers 7.12502
lthumb 0.563725 62.821
rfemur -12.5051 0.621005 17.0698
rtibia 31.706
rfoot -19.0618 -14.6944
rtoes -13.3765
lfemur -10.7044 -3.23161 -20.3731
ltibia 30.2706
lfoot -20.298 9.09658
ltoes -15.6104
